<!DOCTYPE svg PUBLIC "-//W3C//DTD SVG 1.1//EN" "http://www.w3.org/Graphics/SVG/1.1/DTD/svg11.dtd">
<!-- Uploaded to: SVG Repo, www.svgrepo.com, Transformed by: SVG Repo Mixer Tools -->
<svg fill="#8892A7" height="64px" width="64px" version="1.1" id="Capa_1" xmlns="http://www.w3.org/2000/svg" xmlns:xlink="http://www.w3.org/1999/xlink" viewBox="0 0 497.993 497.993" xml:space="preserve">
<g id="SVGRepo_bgCarrier" stroke-width="0"/>
<g id="SVGRepo_tracerCarrier" stroke-linecap="round" stroke-linejoin="round"/>
<g id="SVGRepo_iconCarrier"> <path d="M491.003,156.254L491.003,156.254l-70.788-70.789c-5.577-5.576-12.261-8.524-19.33-8.524H97.861 c-7.238,0-14.753,3.193-20.102,8.542L7.028,156.21C2.496,160.741,0,166.766,0,173.174c0,6.408,2.496,12.433,7.027,16.965 l222.93,222.929c4.744,4.744,10.947,7.498,17.596,7.847c0.063,0.012,0.128,0.019,0.191,0.029c0.078,0.012,0.154,0.029,0.232,0.039 c0.057,0.007,0.113,0.016,0.169,0.022c0.163,0.017,0.33,0.021,0.497,0.028c0.116,0.005,0.231,0.02,0.347,0.02 c0.002,0,0.004,0,0.006,0s0.004,0,0.006,0c0.115,0,0.231-0.015,0.347-0.02c0.166-0.007,0.333-0.011,0.497-0.028 c0.057-0.006,0.113-0.015,0.169-0.022c0.078-0.01,0.154-0.026,0.231-0.039c0.064-0.01,0.129-0.018,0.193-0.029 c6.649-0.349,12.851-3.103,17.594-7.846L490.98,190.116C500.322,180.776,500.333,165.585,491.003,156.254z M153.433,165.051 l87.563-64.213v64.213H153.433z M240.996,181.051v198.111L141.94,181.051H240.996z M131.911,160.993L97.885,92.941h126.824 L131.911,160.993z M227.535,388.019L20.566,181.051h103.485L227.535,388.019z M344.573,221.897 c-3.951-1.976-8.757-0.374-10.733,3.577l-76.844,153.688V181.051h16.002c4.418,0,8-3.582,8-8s-3.582-8-8-8h-16.002v-64.213 l67.226,49.3c1.426,1.046,3.083,1.55,4.725,1.55c2.461,0,4.89-1.133,6.458-3.271c2.613-3.563,1.843-8.569-1.72-11.182 l-60.402-44.295h126.824l-36.055,72.11h-59.059c-4.418,0-8,3.582-8,8s3.582,8,8,8h51.059l-6.21,12.421 c-1.976,3.952-0.374,8.758,3.578,10.733c1.148,0.574,2.369,0.847,3.571,0.847c2.935,0,5.76-1.621,7.162-4.424l9.788-19.577h103.478 L270.457,388.017L348.15,232.63C350.126,228.678,348.524,223.872,344.573,221.897z M477.173,165.051H381.94l31.744-63.489 L477.173,165.051z M84.307,101.562l31.744,63.489H20.815L84.307,101.562z"/> </g>
</svg>