<svg width="27" height="27" viewBox="0 0 27 27" fill="none" xmlns="http://www.w3.org/2000/svg">
<g id="Group 6">
<path id="Vector" d="M1 13.5C1 7.6075 1 4.66125 2.83 2.83C4.6625 1 7.6075 1 13.5 1C19.3925 1 22.3387 1 24.1687 2.83C26 4.6625 26 7.6075 26 13.5C26 19.3925 26 22.3387 24.1687 24.1687C22.34 26 19.3925 26 13.5 26C7.6075 26 4.66125 26 2.83 24.1687C1 22.34 1 19.3925 1 13.5Z" stroke="#8892A7" stroke-width="1.5"/>
<path id="Vector_2" d="M7.25 16L9.49625 13.305C10.3862 12.2362 10.8313 11.7025 11.4163 11.7025C12.0025 11.7025 12.4475 12.2362 13.3375 13.305L13.6625 13.695C14.5525 14.7638 14.9975 15.2975 15.5837 15.2975C16.1687 15.2975 16.6138 14.7638 17.5038 13.695L19.75 11" stroke="#8892A7" stroke-width="1.5" stroke-linecap="round"/>
</g>
</svg>
